<?xml version="1.0" encoding="utf-8"?>
<!-- Generator: Adobe Illustrator 16.0.0, SVG Export Plug-In . SVG Version: 6.00 Build 0)  -->
<!DOCTYPE svg PUBLIC "-//W3C//DTD SVG 1.1//EN" "http://www.w3.org/Graphics/SVG/1.1/DTD/svg11.dtd">
<svg version="1.1" id="Layer_1" xmlns="http://www.w3.org/2000/svg" xmlns:xlink="http://www.w3.org/1999/xlink" x="0px" y="0px"
	 width="1368.283px" height="557.575px" viewBox="0 0 1368.283 557.575" enable-background="new 0 0 1368.283 557.575"
	 xml:space="preserve">
<g transform="translate(22.5000185, 22.5000185) ">
	<polygon fill="none" stroke="#FF0000" stroke-width="0.0035" points="-4.5,-4.5 23.847,-4.5 23.847,4.5 52.193,4.5 52.193,-4.5 
		74.87,-4.5 74.87,4.5 97.547,4.5 97.547,-4.5 120.225,-4.5 120.225,4.5 142.902,4.5 142.902,-4.5 165.579,-4.5 165.579,4.5 
		188.256,4.5 188.256,-4.5 210.933,-4.5 210.933,4.5 233.61,4.5 233.61,-4.5 256.288,-4.5 256.288,4.5 278.965,4.5 278.965,-4.5 
		301.642,-4.5 301.642,4.5 324.319,4.5 324.319,-4.5 346.996,-4.5 346.996,4.5 369.673,4.5 369.673,-4.5 392.351,-4.5 392.351,4.5 
		415.027,4.5 415.027,-4.5 437.705,-4.5 437.705,4.5 466.051,4.5 466.051,-4.5 494.397,-4.5 494.397,25.264 485.397,25.264 
		485.397,55.027 494.397,55.027 494.397,77.705 485.397,77.705 485.397,100.382 494.397,100.382 494.397,123.059 485.397,123.059 
		485.397,152.823 494.397,152.823 494.397,182.586 466.051,182.586 466.051,173.586 437.705,173.586 437.705,182.586 
		415.027,182.586 415.027,173.586 392.351,173.586 392.351,182.586 369.673,182.586 369.673,173.586 346.996,173.586 
		346.996,182.586 324.319,182.586 324.319,173.586 301.642,173.586 301.642,182.586 278.965,182.586 278.965,173.586 
		256.288,173.586 256.288,182.586 233.61,182.586 233.61,173.586 210.933,173.586 210.933,182.586 188.256,182.586 188.256,173.586 
		165.579,173.586 165.579,182.586 142.902,182.586 142.902,173.586 120.225,173.586 120.225,182.586 97.547,182.586 97.547,173.586 
		74.87,173.586 74.87,182.586 52.193,182.586 52.193,173.586 23.847,173.586 23.847,182.586 -4.5,182.586 -4.5,152.823 4.5,152.823 
		4.5,123.059 -4.5,123.059 -4.5,100.382 4.5,100.382 4.5,77.705 -4.5,77.705 -4.5,55.027 4.5,55.027 4.5,25.264 -4.5,25.264 	"/>
</g>
<g transform="translate(646.1225784999999, 22.5000185) ">
	<polygon fill="none" stroke="#FF0000" stroke-width="0.0035" points="-129.225,-4.5 -100.878,-4.5 -100.878,4.5 -72.532,4.5 
		-72.532,-4.5 -49.855,-4.5 -49.855,4.5 -27.177,4.5 -27.177,-4.5 -4.5,-4.5 -4.5,4.5 18.176,4.5 18.176,-4.5 40.854,-4.5 
		40.854,4.5 63.531,4.5 63.531,-4.5 86.208,-4.5 86.208,4.5 108.885,4.5 108.885,-4.5 131.563,-4.5 131.563,4.5 154.24,4.5 
		154.24,-4.5 176.917,-4.5 176.917,4.5 199.594,4.5 199.594,-4.5 222.271,-4.5 222.271,4.5 244.949,4.5 244.949,-4.5 267.625,-4.5 
		267.625,4.5 290.303,4.5 290.303,-4.5 312.98,-4.5 312.98,4.5 341.327,4.5 341.327,-4.5 369.672,-4.5 369.672,25.264 
		360.672,25.264 360.672,55.027 369.672,55.027 369.672,77.705 360.672,77.705 360.672,100.382 369.672,100.382 369.672,123.059 
		360.672,123.059 360.672,152.823 369.672,152.823 369.672,182.586 341.327,182.586 341.327,173.586 312.98,173.586 312.98,182.586 
		290.303,182.586 290.303,173.586 267.625,173.586 267.625,182.586 244.949,182.586 244.949,173.586 222.271,173.586 
		222.271,182.586 199.594,182.586 199.594,173.586 176.917,173.586 176.917,182.586 154.24,182.586 154.24,173.586 131.563,173.586 
		131.563,182.586 108.885,182.586 108.885,173.586 86.208,173.586 86.208,182.586 63.531,182.586 63.531,173.586 40.854,173.586 
		40.854,182.586 18.176,182.586 18.176,173.586 -4.5,173.586 -4.5,182.586 -27.177,182.586 -27.177,173.586 -49.855,173.586 
		-49.855,182.586 -72.532,182.586 -72.532,173.586 -100.878,173.586 -100.878,182.586 -129.225,182.586 -129.225,152.823 
		-120.225,152.823 -120.225,123.059 -129.225,123.059 -129.225,100.382 -120.225,100.382 -120.225,77.705 -129.225,77.705 
		-129.225,55.027 -120.225,55.027 -120.225,25.264 -129.225,25.264 	"/>
</g>
<g transform="translate(1269.7451385000002, 22.5000185) ">
	<polygon fill="none" stroke="#FF0000" stroke-width="0.0035" points="-244.95,-4.5 -221.352,-4.5 -221.352,4.5 -188.753,4.5 
		-188.753,-4.5 -166.075,-4.5 -166.075,4.5 -143.398,4.5 -143.398,-4.5 -120.722,-4.5 -120.722,4.5 -98.044,4.5 -98.044,-4.5 
		-75.367,-4.5 -75.367,4.5 -52.69,4.5 -52.69,-4.5 -30.013,-4.5 -30.013,4.5 -7.336,4.5 -7.336,-4.5 15.342,-4.5 15.342,4.5 
		47.94,4.5 47.94,-4.5 71.538,-4.5 71.538,25.264 80.538,25.264 80.538,55.027 71.538,55.027 71.538,77.705 80.538,77.705 
		80.538,100.382 71.538,100.382 71.538,123.059 80.538,123.059 80.538,152.823 71.538,152.823 71.538,182.586 47.94,182.586 
		47.94,173.586 15.342,173.586 15.342,182.586 -7.336,182.586 -7.336,173.586 -30.013,173.586 -30.013,182.586 -52.69,182.586 
		-52.69,173.586 -75.367,173.586 -75.367,182.586 -98.044,182.586 -98.044,173.586 -120.722,173.586 -120.722,182.586 
		-143.398,182.586 -143.398,173.586 -166.075,173.586 -166.075,182.586 -188.753,182.586 -188.753,173.586 -221.352,173.586 
		-221.352,182.586 -244.95,182.586 -244.95,152.823 -253.95,152.823 -253.95,123.059 -244.95,123.059 -244.95,100.382 
		-253.95,100.382 -253.95,77.705 -244.95,77.705 -244.95,55.027 -253.95,55.027 -253.95,25.264 -244.95,25.264 	"/>
</g>
<g transform="translate(1269.7451385000002, 256.3584785) ">
	<polygon fill="none" stroke="#FF0000" stroke-width="0.0035" points="-244.95,-51.272 -221.352,-51.272 -221.352,-42.272 
		-188.753,-42.272 -188.753,-51.272 -166.075,-51.272 -166.075,-42.272 -143.398,-42.272 -143.398,-51.272 -120.722,-51.272 
		-120.722,-42.272 -98.044,-42.272 -98.044,-51.272 -75.367,-51.272 -75.367,-42.272 -52.69,-42.272 -52.69,-51.272 
		-30.013,-51.272 -30.013,-42.272 -7.336,-42.272 -7.336,-51.272 15.342,-51.272 15.342,-42.272 47.94,-42.272 47.94,-51.272 
		71.538,-51.272 71.538,-21.508 80.538,-21.508 80.538,8.256 71.538,8.256 71.538,30.933 80.538,30.933 80.538,53.611 
		71.538,53.611 71.538,76.287 80.538,76.287 80.538,106.05 71.538,106.05 71.538,135.814 47.94,135.814 47.94,126.814 
		15.342,126.814 15.342,135.814 -7.336,135.814 -7.336,126.814 -30.013,126.814 -30.013,135.814 -52.69,135.814 -52.69,126.814 
		-75.367,126.814 -75.367,135.814 -98.044,135.814 -98.044,126.814 -120.722,126.814 -120.722,135.814 -143.398,135.814 
		-143.398,126.814 -166.075,126.814 -166.075,135.814 -188.753,135.814 -188.753,126.814 -221.352,126.814 -221.352,135.814 
		-244.95,135.814 -244.95,106.05 -253.95,106.05 -253.95,76.287 -244.95,76.287 -244.95,53.611 -253.95,53.611 -253.95,30.933 
		-244.95,30.933 -244.95,8.256 -253.95,8.256 -253.95,-21.508 -244.95,-21.508 	"/>
</g>
<g transform="translate(22.5000185, 256.3584785) ">
	<polygon fill="none" stroke="#FF0000" stroke-width="0.0035" points="4.5,-42.272 23.847,-42.272 23.847,-51.272 52.193,-51.272 
		52.193,-42.272 74.87,-42.272 74.87,-51.272 97.547,-51.272 97.547,-42.272 120.225,-42.272 120.225,-51.272 142.902,-51.272 
		142.902,-42.272 165.579,-42.272 165.579,-51.272 188.256,-51.272 188.256,-42.272 210.933,-42.272 210.933,-51.272 
		233.61,-51.272 233.61,-42.272 256.288,-42.272 256.288,-51.272 278.965,-51.272 278.965,-42.272 301.642,-42.272 301.642,-51.272 
		324.319,-51.272 324.319,-42.272 346.996,-42.272 346.996,-51.272 369.673,-51.272 369.673,-42.272 392.351,-42.272 
		392.351,-51.272 415.027,-51.272 415.027,-42.272 437.705,-42.272 437.705,-51.272 466.051,-51.272 466.051,-42.272 
		485.397,-42.272 485.397,-18.673 494.397,-18.673 494.397,13.925 485.397,13.925 485.397,36.602 494.397,36.602 494.397,59.279 
		485.397,59.279 485.397,81.956 494.397,81.956 494.397,104.634 485.397,104.634 485.397,127.31 494.397,127.31 494.397,149.988 
		485.397,149.988 485.397,172.665 494.397,172.665 494.397,195.343 485.397,195.343 485.397,218.019 494.397,218.019 
		494.397,250.619 485.397,250.619 485.397,274.216 466.051,274.216 466.051,283.216 437.705,283.216 437.705,274.216 
		415.027,274.216 415.027,283.216 392.351,283.216 392.351,274.216 369.673,274.216 369.673,283.216 346.996,283.216 
		346.996,274.216 324.319,274.216 324.319,283.216 301.642,283.216 301.642,274.216 278.965,274.216 278.965,283.216 
		256.288,283.216 256.288,274.216 233.61,274.216 233.61,283.216 210.933,283.216 210.933,274.216 188.256,274.216 188.256,283.216 
		165.579,283.216 165.579,274.216 142.902,274.216 142.902,283.216 120.225,283.216 120.225,274.216 97.547,274.216 97.547,283.216 
		74.87,283.216 74.87,274.216 52.193,274.216 52.193,283.216 23.847,283.216 23.847,274.216 4.5,274.216 4.5,250.619 -4.5,250.619 
		-4.5,218.019 4.5,218.019 4.5,195.343 -4.5,195.343 -4.5,172.665 4.5,172.665 4.5,149.988 -4.5,149.988 -4.5,127.31 4.5,127.31 
		4.5,104.634 -4.5,104.634 -4.5,81.956 4.5,81.956 4.5,59.279 -4.5,59.279 -4.5,36.602 4.5,36.602 4.5,13.925 -4.5,13.925 
		-4.5,-18.673 4.5,-18.673 	"/>
</g>
<g transform="translate(646.1225784999999, 256.3584785) ">
	<polygon fill="none" stroke="#FF0000" stroke-width="0.0035" points="-120.225,-42.272 -100.878,-42.272 -100.878,-51.272 
		-72.532,-51.272 -72.532,-42.272 -49.855,-42.272 -49.855,-51.272 -27.177,-51.272 -27.177,-42.272 -4.5,-42.272 -4.5,-51.272 
		18.176,-51.272 18.176,-42.272 40.854,-42.272 40.854,-51.272 63.531,-51.272 63.531,-42.272 86.208,-42.272 86.208,-51.272 
		108.885,-51.272 108.885,-42.272 131.563,-42.272 131.563,-51.272 154.24,-51.272 154.24,-42.272 176.917,-42.272 176.917,-51.272 
		199.594,-51.272 199.594,-42.272 222.271,-42.272 222.271,-51.272 244.949,-51.272 244.949,-42.272 267.625,-42.272 
		267.625,-51.272 290.303,-51.272 290.303,-42.272 312.98,-42.272 312.98,-51.272 341.327,-51.272 341.327,-42.272 360.672,-42.272 
		360.672,-18.673 369.672,-18.673 369.672,13.925 360.672,13.925 360.672,36.602 369.672,36.602 369.672,59.279 360.672,59.279 
		360.672,81.956 369.672,81.956 369.672,104.634 360.672,104.634 360.672,127.31 369.672,127.31 369.672,149.988 360.672,149.988 
		360.672,172.665 369.672,172.665 369.672,195.343 360.672,195.343 360.672,218.019 369.672,218.019 369.672,250.619 
		360.672,250.619 360.672,274.216 341.327,274.216 341.327,283.216 312.98,283.216 312.98,274.216 290.303,274.216 290.303,283.216 
		267.625,283.216 267.625,274.216 244.949,274.216 244.949,283.216 222.271,283.216 222.271,274.216 199.594,274.216 
		199.594,283.216 176.917,283.216 176.917,274.216 154.24,274.216 154.24,283.216 131.563,283.216 131.563,274.216 108.885,274.216 
		108.885,283.216 86.208,283.216 86.208,274.216 63.531,274.216 63.531,283.216 40.854,283.216 40.854,274.216 18.176,274.216 
		18.176,283.216 -4.5,283.216 -4.5,274.216 -27.177,274.216 -27.177,283.216 -49.855,283.216 -49.855,274.216 -72.532,274.216 
		-72.532,283.216 -100.878,283.216 -100.878,274.216 -120.225,274.216 -120.225,250.619 -129.225,250.619 -129.225,218.019 
		-120.225,218.019 -120.225,195.343 -129.225,195.343 -129.225,172.665 -120.225,172.665 -120.225,149.988 -129.225,149.988 
		-129.225,127.31 -120.225,127.31 -120.225,104.634 -129.225,104.634 -129.225,81.956 -120.225,81.956 -120.225,59.279 
		-129.225,59.279 -129.225,36.602 -120.225,36.602 -120.225,13.925 -129.225,13.925 -129.225,-18.673 -120.225,-18.673 	"/>
</g>
<circle fill="none" stroke="#FF0000" stroke-width="0.001" stroke-miterlimit="10" cx="146.147" cy="251.801" r="8.504"/>
<circle fill="none" stroke="#FF0000" stroke-width="0.001" stroke-miterlimit="10" cx="146.147" cy="491.801" r="8.504"/>
<circle fill="none" stroke="#FF0000" stroke-width="0.001" stroke-miterlimit="10" cx="146.605" cy="372.118" r="42.52"/>
<circle fill="none" stroke="#FF0000" stroke-width="0.001" stroke-miterlimit="10" cx="387.943" cy="371.917" r="42.52"/>
<rect x="50.642" y="42.288" fill="none" stroke="#FF0000" stroke-width="0.001" stroke-miterlimit="10" width="36" height="27"/>
</svg>
